<?xml version="1.0" encoding="UTF-8"?>
<svg id="Layer_1" xmlns="http://www.w3.org/2000/svg" version="1.1" viewBox="0 0 228.9 153.7">
  <!-- Generator: Adobe Illustrator 30.6.0, SVG Export Plug-In . SVG Version: 2.1.4 Build 109)  -->
  <defs>
    <style>
      .st0 {
        fill: #283746;
      }
    </style>
  </defs>
  <path class="st0" d="M0,6.1v13.3c0,3.4,2.7,6.1,6.1,6.1h70.3c2.6,0,4.8-1.6,5.7-4l4.9-13.3C88.4,4.2,85.4,0,81.2,0H6.1C2.7,0,0,2.7,0,6.1"/>
  <path class="st0" d="M42.2,101.2h13.3c3.4,0,6.1-2.7,6.1-6.1v-56.1c0-2.6-1.6-4.8-4-5.7l-13.3-4.9c-4-1.4-8.2,1.5-8.2,5.7v60.9c0,3.4,2.7,6.1,6.1,6.1"/>
  <path class="st0" d="M97,4l-32.4,89c-1.4,4,1.5,8.2,5.7,8.2h14.2c2.6,0,4.8-1.6,5.7-4l17.4-47.7c1.9-5.3,9.5-5.3,11.4,0l6.6,18.1c1.4,4-1.5,8.2-5.7,8.2h-9c-2.6,0-4.8,1.6-5.7,4l-4.9,13.3c-1.4,4,1.5,8.2,5.7,8.2h50.3c4.2,0,7.2-4.2,5.7-8.2L129.6,4C128.7,1.6,126.4,0,123.9,0h-21.2c-2.6,0-4.8,1.6-5.7,4"/>
  <path class="st0" d="M210.9,125.5l3.2-8.1,3.2,8.1h-6.5ZM221.4,135.7h7.4l-11.2-25.2h-7l-11.1,25.2h7.3l2-4.9h10.7l2,4.9ZM183.6,130.2v-4.6h11.2v-5.3h-11.2v-4.2h12.7v-5.5h-19.8v25.2h20.2v-5.5h-13.2ZM163.7,119.8c0,1.2-.4,2.1-1.1,2.7-.7.6-1.8,1-3.3,1h-4v-7.4h4c1.5,0,2.6.3,3.3,1,.7.6,1.1,1.6,1.1,2.7M163.7,135.7h7.6l-5.4-7.9c1.6-.8,2.8-1.8,3.7-3.2.9-1.4,1.3-2.9,1.3-4.8s-.5-3.5-1.4-4.9c-.9-1.4-2.2-2.5-3.9-3.2s-3.7-1.1-5.9-1.1h-11.5v25.2h7.1v-6.7h3.9l4.6,6.7ZM126.4,125.5l3.2-8.1,3.2,8.1h-6.5ZM136.9,135.7h7.4l-11.2-25.2h-7l-11.1,25.2h7.3l2-4.9h10.7l2,4.9ZM101.6,135.7l-9.4-13,8.8-12.2h-7.7l-5,7.3-5-7.3h-8l8.8,12.5-9.2,12.7h8.1l5.1-7.8,5.2,7.8h8.2ZM58.7,130.2v-4.6h11.2v-5.3h-11.2v-4.2h12.7v-5.5h-19.8v25.2h20.2v-5.5h-13.2ZM32.4,135.7h7.1v-19.5h7.7v-5.7h-22.6v5.7h7.7v19.5Z"/>
  <path class="st0" d="M189.6,150.6l-.9,2c.5.3,1.1.6,1.8.8.7.2,1.5.3,2.3.3s1.7-.1,2.3-.4c.6-.3,1.1-.6,1.4-1.1.3-.5.5-1,.5-1.6s-.2-1.2-.5-1.6c-.4-.4-.8-.7-1.2-.8-.5-.2-1.1-.3-1.8-.5-.6-.1-1.1-.3-1.4-.4-.3-.1-.4-.3-.4-.6s.1-.5.4-.6c.2-.2.6-.2,1.2-.2.9,0,1.7.2,2.7.7l.8-2c-.5-.3-1-.5-1.6-.6-.6-.1-1.2-.2-1.9-.2-.9,0-1.7.1-2.3.4-.6.3-1.1.6-1.4,1.1-.3.5-.5,1-.5,1.6s.2,1.2.5,1.6c.3.4.8.7,1.2.9.5.2,1.1.3,1.8.5.7.1,1.1.3,1.4.4.3.1.4.3.4.6,0,.5-.5.8-1.6.8s-1.1,0-1.7-.3c-.6-.2-1.1-.4-1.5-.7M172.2,146.1c-.5.8-.7,1.6-.7,2.6s.2,1.8.7,2.6c.5.8,1.1,1.3,1.9,1.8.8.4,1.7.6,2.7.6s1.7-.2,2.4-.5c.7-.3,1.3-.8,1.8-1.3l-1.7-1.6c-.6.7-1.4,1.1-2.3,1.1s-1-.1-1.4-.3c-.4-.2-.7-.5-.9-1-.2-.4-.3-.9-.3-1.4s.1-1,.3-1.4c.2-.4.5-.7.9-1,.4-.2.9-.3,1.4-.3.9,0,1.6.4,2.3,1.1l1.7-1.6c-.5-.6-1-1-1.8-1.3-.7-.3-1.5-.5-2.4-.5s-1.9.2-2.7.6c-.8.4-1.4,1-1.9,1.8M162.6,143.9h-2.7v9.6h2.7v-9.6ZM24.6,149.6h20.8v-1.7h-20.8v1.7ZM63.3,149.6h-2.5l1.2-3.1,1.2,3.1ZM64.8,153.5h2.8l-4.2-9.6h-2.7l-4.2,9.6h2.8l.8-1.9h4.1l.8,1.9ZM82.7,153.5h2.2v-9.6h-2.7v5.1l-4.2-5.1h-2.2v9.6h2.7v-5.1l4.2,5.1ZM99.9,149.6h-2.5l1.2-3.1,1.2,3.1ZM101.4,153.5h2.8l-4.2-9.6h-2.7l-4.2,9.6h2.8l.8-1.9h4.1l.8,1.9ZM112.4,153.5h7.3v-2.2h-4.6v-7.4h-2.7v9.6ZM132.3,150.1l3.7-6.1h-2.6l-2.3,3.8-2.3-3.8h-2.9l3.7,6.1v3.5h2.7v-3.4ZM151.5,143.9h-8.6v2.2h2.9v7.4h2.7v-7.4h2.9v-2.2ZM181.1,3.5c-.2-1.8-1.7-3.3-3.5-3.4-1.3-.1-2.5.4-3.3,1.3-1,1.1-2.5,1.7-4,1.7h-16c-.5,0-.9.4-.9.9s.4.9.9.9h16.1c1.5,0,3,.7,4,1.8.7.7,1.7,1.2,2.8,1.2,2.3,0,4.2-2,3.9-4.4M184.8,13.3c0-.5-.4-.9-.9-.9h-23.1c-1.5,0-3-.6-4-1.7-.8-.9-2-1.4-3.3-1.3-1.8.2-3.3,1.6-3.5,3.4-.3,2.4,1.6,4.4,3.9,4.4s2.1-.5,2.8-1.2c1.1-1.1,2.5-1.8,4-1.8h23.2c.5,0,.9-.4.9-.9M187.8,22.1c-.2-1.8-1.7-3.3-3.5-3.4-1.3-.1-2.5.4-3.3,1.3-1,1.1-2.5,1.7-4,1.7h-29.5c-.5,0-.9.4-.9.9s.4.9.9.9h29.6c1.5,0,3,.7,4,1.8.7.7,1.7,1.2,2.8,1.2,2.3,0,4.2-2,3.9-4.4M191.4,31.9c0-.5-.4-.9-.9-.9h-36.6c-1.5,0-3-.6-4-1.7-.8-.9-2-1.4-3.3-1.3-1.8.2-3.3,1.6-3.5,3.4-.3,2.4,1.6,4.4,3.9,4.4s2.1-.5,2.8-1.2c1.1-1.1,2.5-1.8,4-1.8h36.6c.5,0,.9-.4.9-.9M194.6,40.8c-.2-1.8-1.7-3.3-3.5-3.4-1.3-.1-2.5.4-3.3,1.3-1,1.1-2.5,1.7-4,1.7h-14.6c-.5,0-.9.4-.9.9s.4.9.9.9h14.7c1.5,0,3,.7,4,1.8.7.7,1.7,1.2,2.8,1.2,2.3,0,4.2-2,3.9-4.4M198.2,50.6c0-.5-.4-.9-.9-.9h-14.6c-1.5,0-3-.6-4-1.7-.8-.9-2-1.4-3.3-1.3-1.8.2-3.3,1.6-3.5,3.4-.3,2.4,1.6,4.4,3.9,4.4s2.1-.5,2.8-1.2c1.1-1.1,2.5-1.8,4-1.8h14.7c.5,0,.9-.4.9-.9M201.4,59.5c-.2-1.8-1.7-3.3-3.5-3.4-1.3-.1-2.5.4-3.3,1.3-1,1.1-2.5,1.7-4,1.7h-14.6c-.5,0-.9.4-.9.9s.4.9.9.9h14.7c1.5,0,3,.7,4,1.8.7.7,1.7,1.2,2.8,1.2,2.3,0,4.2-2,3.9-4.4M205.1,69.3c0-.5-.4-.9-.9-.9h-14.6c-1.5,0-3-.6-4-1.7-.8-.9-2-1.4-3.3-1.3-1.8.2-3.3,1.6-3.5,3.4-.3,2.4,1.6,4.4,3.9,4.4s2.1-.5,2.8-1.2c1.1-1.1,2.5-1.8,4-1.8h14.7c.5,0,.9-.4.9-.9M208.2,78.2c-.2-1.8-1.7-3.3-3.5-3.4-1.3-.1-2.5.4-3.3,1.3-1,1.1-2.5,1.7-4,1.7h-36.6c-.5,0-.9.4-.9.9s.4.9.9.9h36.6c1.5,0,3,.7,4,1.8.7.7,1.7,1.2,2.8,1.2,2.3,0,4.2-2,3.9-4.4M211.9,87.9c0-.5-.4-.9-.9-.9h-36.6c-1.5,0-3-.6-4-1.7-.8-.9-2-1.4-3.3-1.3-1.8.2-3.3,1.6-3.5,3.4-.3,2.4,1.6,4.4,3.9,4.4s2.1-.5,2.8-1.2c1.1-1.1,2.5-1.8,4-1.8h36.6c.5,0,.9-.4.9-.9M215,96.8c-.2-1.8-1.7-3.3-3.5-3.4-1.3-.1-2.5.4-3.3,1.3-1,1.1-2.5,1.7-4,1.7h-36.6c-.5,0-.9.4-.9.9s.4.9.9.9h36.6c1.5,0,3,.7,4,1.8.7.7,1.7,1.2,2.8,1.2,2.3,0,4.2-2,3.9-4.4M228.9,147.8h-20.8v1.7h20.8v-1.7Z"/>
</svg>